<?xml version="1.0" standalone="no"?>
<!DOCTYPE svg PUBLIC "-//W3C//DTD SVG 20010904//EN"
 "http://www.w3.org/TR/2001/REC-SVG-20010904/DTD/svg10.dtd">
<svg version="1.0" xmlns="http://www.w3.org/2000/svg"
 width="275.000000pt" height="275.000000pt" viewBox="0 0 275.000000 275.000000"
 preserveAspectRatio="xMidYMid meet">
<metadata>
Created by potrace 1.14, written by Peter Selinger 2001-2017
</metadata>
<g transform="translate(0.000000,275.000000) scale(0.100000,-0.100000)"
fill="#000000" stroke="none">
<path d="M1793 2633 c-53 -30 -229 -181 -281 -241 -129 -150 -225 -314 -243
-414 -7 -37 -15 -65 -18 -63 -4 2 -3 43 0 92 4 48 2 92 -2 98 -6 5 -9 1 -9
-11 0 -10 -16 -75 -35 -144 -79 -281 -85 -309 -92 -462 -3 -82 -10 -148 -15
-148 -4 0 -8 2 -8 4 0 2 -20 59 -44 128 -99 282 -237 521 -390 674 -81 80
-103 96 -206 146 -162 79 -183 85 -242 59 -52 -22 -62 -46 -32 -75 22 -23 34
-20 34 10 0 21 4 24 20 19 16 -5 20 -2 20 14 0 12 3 21 8 21 18 -1 29 -17 28
-44 -1 -20 7 -35 26 -49 l28 -21 22 21 c18 17 27 19 41 12 21 -12 13 -29 -13
-29 -11 0 -24 -10 -31 -21 -9 -18 -7 -29 12 -63 20 -35 24 -56 25 -146 1 -58
7 -136 13 -173 6 -37 10 -119 9 -181 -2 -107 -1 -114 25 -159 35 -59 75 -85
202 -134 l100 -38 -65 -7 c-182 -21 -232 -40 -325 -126 -74 -68 -92 -97 -69
-110 26 -15 56 -3 49 19 -5 15 -1 19 19 19 20 0 27 -6 32 -28 11 -52 25 -74
54 -85 17 -6 30 -19 30 -28 0 -25 11 -29 41 -14 38 20 49 19 49 -5 0 -24 7
-25 54 -5 39 16 56 13 56 -10 0 -7 10 -15 22 -17 16 -2 -1 -12 -52 -28 -54
-18 -76 -30 -79 -44 -2 -15 1 -17 15 -11 11 4 30 10 44 12 22 5 19 0 -23 -42
-51 -53 -55 -72 -6 -36 l31 23 -7 -23 c-4 -13 -32 -72 -61 -131 -64 -128 -52
-144 20 -28 27 44 50 80 52 80 1 0 0 -17 -3 -39 -7 -53 12 -61 38 -16 29 48
35 37 14 -22 -14 -37 -19 -92 -22 -244 -5 -190 -5 -197 16 -218 l21 -21 -25
-16 c-25 -16 -85 -91 -85 -106 0 -4 45 -8 100 -8 l100 0 38 38 c83 83 221 81
401 -3 64 -31 83 -35 151 -35 l78 0 -17 58 c-10 31 -23 86 -31 120 l-13 64
-31 -6 c-122 -25 -170 -29 -174 -16 -3 7 -19 29 -37 49 -55 61 -89 148 -74
188 4 11 36 38 71 58 186 112 337 219 349 247 27 66 -18 110 -152 147 -46 13
-92 31 -102 42 -10 10 -26 19 -37 19 -10 0 -21 4 -24 8 -5 9 178 142 195 142
6 0 8 -12 4 -29 -9 -44 4 -78 39 -99 60 -36 150 -64 245 -78 80 -11 100 -18
133 -45 32 -25 42 -29 49 -18 5 8 9 20 9 27 0 17 36 15 54 -4 19 -19 20 -26 4
-42 -8 -8 -13 -93 -16 -284 -5 -403 -13 -462 -70 -520 l-26 -28 268 0 c151 0
265 4 262 9 -3 5 -33 11 -65 13 -38 3 -67 11 -79 21 -22 20 -59 188 -46 209 4
6 8 57 8 112 l1 101 94 -2 c52 -1 107 -7 122 -13 29 -12 49 -53 49 -99 0 -40
13 -53 51 -49 l34 3 -2 87 c-1 48 -4 91 -7 96 -2 4 0 58 6 120 12 123 6 142
-38 142 -27 0 -44 -30 -44 -78 -1 -59 -40 -79 -170 -89 l-87 -6 -5 184 c-3
101 -3 211 1 244 l6 60 198 3 c236 3 232 5 333 -120 l64 -80 0 159 0 158 -32
2 c-113 5 -261 2 -378 -8 -74 -6 -182 -8 -240 -5 -58 3 -157 9 -221 12 l-117
6 -12 -36 c-15 -47 -8 -56 44 -56 56 0 77 -24 87 -97 4 -32 6 -59 3 -62 -2 -2
-16 6 -30 20 -24 22 -33 24 -137 24 -97 0 -118 3 -154 23 -45 23 -66 54 -77
111 -7 36 13 71 41 71 18 0 34 45 35 101 1 34 -5 54 -20 74 -26 33 -29 91 -6
124 15 21 22 22 69 16 61 -7 68 -1 85 67 8 32 26 61 56 91 49 50 54 71 23 96
-18 14 -20 21 -10 39 32 59 -11 113 -63 78 -30 -19 -69 -8 -87 25 -22 42 5
180 62 311 16 36 36 98 44 137 8 39 22 82 31 95 10 17 13 35 9 58 -5 25 -2 40
13 58 18 22 21 23 51 10 28 -11 33 -11 46 6 20 27 18 51 -4 64 -26 13 -31 13
-68 -7z m-267 -295 c4 -6 -6 -22 -23 -37 -17 -14 -40 -42 -52 -62 -24 -41 -48
-65 -57 -56 -7 6 107 167 118 167 4 0 10 -5 14 -12z m120 -13 c11 -28 -5 -62
-33 -72 -68 -24 -93 -31 -93 -25 0 9 103 112 112 112 5 0 11 -7 14 -15z m-198
-198 c-48 -99 -68 -122 -83 -98 -5 9 125 215 131 208 2 -2 -20 -51 -48 -110z
m164 67 c-2 -16 -11 -36 -19 -44 -14 -13 -14 -13 -3 9 22 42 -4 48 -47 11 -21
-19 -38 -39 -38 -44 0 -6 19 -11 43 -10 l44 1 -7 -36 c-13 -75 -14 -76 -46
-45 l-29 28 -34 -33 c-47 -46 -53 -25 -16 61 36 84 61 115 104 127 43 13 51 8
48 -25z m-1039 -129 c26 -15 46 -29 44 -31 -4 -5 -145 50 -154 61 -17 17 65
-5 110 -30z m3 -44 c29 -18 81 -87 72 -96 -4 -5 -110 21 -149 36 -32 13 -53
51 -36 68 17 17 79 13 113 -8z m963 -22 c21 -17 22 -22 10 -30 -7 -5 -19 -9
-25 -9 -6 0 -17 -15 -26 -32 l-15 -33 -22 44 c-12 23 -21 44 -19 46 7 5 63 34
68 34 3 0 16 -9 29 -20z m-789 -106 c7 -30 9 -57 7 -60 -6 -5 -59 96 -72 136
l-7 23 31 -23 c23 -17 33 -35 41 -76z m610 72 c-7 -8 -10 -24 -7 -34 5 -20
-47 -80 -59 -68 -14 13 8 77 33 97 30 23 51 27 33 5z m208 -51 c-4 -20 -34
-41 -44 -31 -8 8 24 47 38 47 5 0 8 -7 6 -16z m-838 -103 c23 -47 24 -51 9
-51 -14 0 -149 109 -149 120 0 4 19 11 43 16 47 11 49 9 97 -85z m-185 39 l39
-40 -28 0 c-44 0 -66 17 -66 50 0 17 4 30 8 30 4 0 26 -18 47 -40z m694 13
c-1 -10 -5 -29 -9 -43 -7 -21 -8 -19 -9 18 -1 23 4 42 9 42 6 0 10 -8 9 -17z
m-613 -50 c76 -58 124 -116 131 -160 3 -21 14 -49 25 -62 10 -13 16 -26 14
-28 -4 -5 -103 48 -148 79 -47 33 -65 147 -20 131 9 -3 -1 13 -23 36 -21 22
-37 41 -34 41 3 0 28 -17 55 -37z m219 -89 c39 -94 70 -189 78 -239 5 -29 4
-29 -38 18 -75 82 -133 228 -105 262 8 10 13 32 12 49 -3 41 7 24 53 -90z
m341 -24 c-13 -52 -27 -108 -30 -124 -4 -15 -9 -26 -12 -23 -5 4 31 213 42
246 3 9 8 11 14 5 6 -6 0 -46 -14 -104z m-633 41 c10 -10 19 -30 20 -47 2 -24
-2 -29 -24 -32 -14 -2 -37 2 -52 7 -21 8 -27 17 -27 40 0 49 9 62 39 55 14 -4
34 -14 44 -23z m366 -85 c17 -49 29 -91 27 -93 -6 -7 -74 171 -69 180 7 12 9
9 42 -87z m-356 -56 c-19 -47 -10 -63 39 -75 23 -6 29 -3 36 14 7 20 13 17
125 -45 64 -36 115 -70 112 -75 -3 -4 -36 3 -73 17 -114 45 -153 54 -219 54
-54 0 -68 4 -88 24 -28 28 -40 66 -31 101 6 23 11 25 60 25 l54 0 -15 -40z
m792 -26 c-24 -37 -29 -23 -8 21 12 26 19 32 21 21 2 -9 -4 -28 -13 -42z
m-652 10 c57 -29 120 -74 113 -81 -5 -6 -144 65 -175 88 -36 29 -1 24 62 -7z
m29 -160 c143 -57 142 -64 -2 -39 -137 22 -193 47 -149 64 39 16 54 13 151
-25z m-79 -171 c-7 -2 -21 -2 -30 0 -10 3 -4 5 12 5 17 0 24 -2 18 -5z m-70
-19 c43 -7 45 -14 16 -40 -21 -19 -22 -19 -36 4 -16 23 -47 29 -59 11 -3 -6 6
-23 21 -39 l27 -28 -28 -49 c-39 -68 -42 -72 -65 -66 -18 5 -18 7 -4 23 23 25
18 47 -15 72 -38 28 -38 37 3 75 40 38 68 53 87 48 8 -2 32 -7 53 -11z m150 9
c-7 -2 -19 -2 -25 0 -7 3 -2 5 12 5 14 0 19 -2 13 -5z m-107 -168 c4 -8 3 -26
0 -39 -5 -19 -14 -24 -48 -29 -24 -3 -44 -4 -46 -3 -8 9 25 59 47 71 33 18 40
18 47 0z m444 -475 c-41 -39 -78 -70 -82 -70 -10 0 -10 81 0 97 7 11 106 40
142 41 8 1 -19 -30 -60 -68z m-350 -107 c0 -16 9 -48 20 -72 13 -28 20 -65 20
-107 0 -58 -2 -65 -29 -85 -17 -12 -27 -28 -24 -35 7 -20 17 -18 51 11 25 21
33 38 43 96 14 81 24 74 34 -26 l6 -70 -33 -11 c-18 -7 -48 -18 -66 -25 -28
-12 -34 -12 -42 1 -15 24 -12 124 5 146 21 28 19 54 -5 54 -23 0 -24 3 -9 87
11 64 29 86 29 36z m289 -192 c13 -24 37 -51 53 -61 l30 -18 -108 -4 c-60 -2
-113 -1 -118 3 -5 4 -3 51 4 109 l12 101 52 -44 c28 -24 62 -63 75 -86z"/>
<path d="M2737 553 c-5 -7 -21 -13 -37 -13 -25 0 -40 -15 -40 -39 0 -4 9 -17
21 -30 57 -61 -12 -338 -105 -418 -28 -25 -46 -33 -76 -33 -21 0 -42 -5 -45
-10 -4 -6 19 -10 62 -10 59 0 76 4 114 29 24 16 61 46 82 68 l37 39 -2 215
c-2 118 -7 208 -11 202z"/>
</g>
</svg>
